<?xml version="1.0" encoding="UTF-8" standalone="no"?>
<svg
   xmlns:dc="http://purl.org/dc/elements/1.1/"
   xmlns:cc="http://creativecommons.org/ns#"
   xmlns:rdf="http://www.w3.org/1999/02/22-rdf-syntax-ns#"
   xmlns:svg="http://www.w3.org/2000/svg"
   xmlns="http://www.w3.org/2000/svg"
   xmlns:sodipodi="http://sodipodi.sourceforge.net/DTD/sodipodi-0.dtd"
   xmlns:inkscape="http://www.inkscape.org/namespaces/inkscape"
   id="Capa_1"
   enable-background="new 0 0 512 512"
   height="50"
   viewBox="0 0 50 50"
   width="50"
   version="1.1"
   sodipodi:docname="robot.svg"
   inkscape:version="0.92.4 5da689c313, 2019-01-14">
  <metadata
     id="metadata47">
    <rdf:RDF>
      <cc:Work
         rdf:about="">
        <dc:format>image/svg+xml</dc:format>
        <dc:type
           rdf:resource="http://purl.org/dc/dcmitype/StillImage" />
        <dc:title></dc:title>
      </cc:Work>
    </rdf:RDF>
  </metadata>
  <defs
     id="defs45" />
  <sodipodi:namedview
     pagecolor="#ffffff"
     bordercolor="#666666"
     borderopacity="1"
     objecttolerance="10"
     gridtolerance="10"
     guidetolerance="10"
     inkscape:pageopacity="0"
     inkscape:pageshadow="2"
     inkscape:window-width="1920"
     inkscape:window-height="1006"
     id="namedview43"
     showgrid="false"
     inkscape:zoom="0.4609375"
     inkscape:cx="-133.42373"
     inkscape:cy="342.77966"
     inkscape:window-x="0"
     inkscape:window-y="0"
     inkscape:window-maximized="1"
     inkscape:current-layer="Capa_1" />
  <g
     id="g874"
     transform="scale(0.09765625)">
    <path
       id="path2"
       d="M 512,255.63 V 256 c 0,8.6 -0.43,17.11 -1.26,25.5 -1.88,19.03 -5.84,37.44 -11.66,55.01 C 469.39,426.2 391.45,493.92 296,508.89 c -12.71,1.99 -25.74,3.05 -39,3.1 -0.33,0.01 -0.67,0.01 -1,0.01 -2.34,0 -4.67,-0.03 -7,-0.09 -12.18,-0.33 -24.14,-1.5 -35.84,-3.48 C 92.18,488.05 0,382.78 0,256 0,114.62 114.62,0 256,0 c 131.21,0 239.37,98.72 254.25,225.93 1.14,9.74 1.74,19.65 1.75,29.7 z"
       inkscape:connector-curvature="0"
       style="fill:#fd9e27" />
    <path
       id="path4"
       d="M 512,255.63 V 256 c 0,8.6 -0.43,17.11 -1.26,25.5 -1.88,19.03 -5.84,37.44 -11.66,55.01 C 469.39,426.2 391.45,493.92 296,508.89 c -12.71,1.99 -25.74,3.05 -39,3.1 -0.33,0.01 -0.67,0.01 -1,0.01 -2.34,0 -4.67,-0.03 -7,-0.09 -12.18,-0.33 -24.14,-1.5 -35.84,-3.48 C 213.01,508.28 71.71,366.98 71.71,366.98 l 13.16,-62.03 26.49,-52.38 h 34.8 L 194.14,223.3 155.44,184.58 357.8,82.14 c 0,0 74.33,74.32 74.5,74.48 l 10.26,1.62 67.69,67.69 c 1.14,9.74 1.74,19.65 1.75,29.7 z"
       inkscape:connector-curvature="0"
       style="fill:#da7d00" />
    <path
       id="path6"
       d="m 226.143,174.795 v 72.159 6.275 150 h 60 v -150 -6.275 -72.159 z"
       inkscape:connector-curvature="0"
       style="fill:#06465e" />
    <path
       id="path8"
       d="m 256,174.795 v 228.434 h 30.143 v -150 -6.275 -72.159 z"
       inkscape:connector-curvature="0"
       style="fill:#022b3a" />
    <path
       id="path10"
       d="m 403.037,202.476 v 43.805 H 363.07 v 25.368 h 39.967 24.949 0.419 v -69.173 z"
       inkscape:connector-curvature="0"
       style="fill:#06465e" />
    <path
       id="path12"
       d="m 434.377,151.817 -6.821,15.752 -2.619,6.049 c 2.934,2.568 4.799,6.33 4.799,10.526 0,7.72 -6.28,14 -14,14 -7.72,0 -14,-6.281 -14,-14 0,-4.196 1.865,-7.958 4.799,-10.526 l -2.619,-6.049 -6.821,-15.752 c -11.162,6.462 -18.693,18.527 -18.693,32.326 0,20.586 16.748,37.334 37.334,37.334 20.586,0 37.334,-16.748 37.334,-37.334 0,-13.798 -7.531,-25.864 -18.693,-32.326 z"
       inkscape:connector-curvature="0"
       style="fill:#eaeaea" />
    <path
       id="path14"
       d="m 110.238,321.74 v -43.805 h 39.968 V 252.567 H 110.238 85.29 84.871 v 69.173 z"
       inkscape:connector-curvature="0"
       style="fill:#06465e" />
    <g
       id="g22"
       style="fill:#ffffff">
      <circle
         id="circle16"
         r="18.667"
         cy="265.086"
         cx="97.540001" />
      <path
         id="path18"
         d="m 78.899,372.399 6.821,-15.751 2.619,-6.049 c -2.934,-2.568 -4.799,-6.33 -4.799,-10.526 0,-7.72 6.28,-14 14,-14 7.72,0 14,6.281 14,14 0,4.196 -1.865,7.958 -4.799,10.526 l 2.619,6.049 6.821,15.751 c 11.162,-6.462 18.693,-18.527 18.693,-32.326 0,-20.586 -16.748,-37.334 -37.334,-37.334 -20.586,0 -37.334,16.748 -37.334,37.334 0,13.798 7.531,25.864 18.693,32.326 z"
         inkscape:connector-curvature="0" />
      <path
         id="path20"
         d="m 336.143,192.881 h -160 c -16.569,0 -30,-13.431 -30,-30 v -60 c 0,-16.569 13.431,-30 30,-30 h 160 c 16.569,0 30,13.431 30,30 v 60 c 0,16.569 -13.431,30 -30,30 z"
         inkscape:connector-curvature="0" />
    </g>
    <path
       id="path24"
       d="M 336.143,72.881 H 256 v 120 h 80.143 c 16.568,0 30,-13.431 30,-30 v -60 c 0,-16.568 -13.431,-30 -30,-30 z"
       inkscape:connector-curvature="0"
       style="fill:#eaeaea" />
    <path
       id="path26"
       d="m 336.143,353.295 h -160 c -16.569,0 -30,-13.431 -30,-30 v -70 c 0,-16.569 13.431,-30 30,-30 h 160 c 16.569,0 30,13.431 30,30 v 70 c 0,16.569 -13.431,30 -30,30 z"
       inkscape:connector-curvature="0"
       style="fill:#ffffff" />
    <path
       id="path28"
       d="M 336.143,223.295 H 256 v 130 h 80.143 c 16.568,0 30,-13.432 30,-30 v -70 c 0,-16.568 -13.431,-30 -30,-30 z"
       inkscape:connector-curvature="0"
       style="fill:#eaeaea" />
    <path
       id="path30"
       d="m 333.748,429.119 h -154.11 c -12.672,0 -22.945,-10.273 -22.945,-22.945 0,-12.672 10.273,-22.945 22.945,-22.945 h 154.11 c 12.672,0 22.945,10.273 22.945,22.945 -10e-4,12.672 -10.273,22.945 -22.945,22.945 z"
       inkscape:connector-curvature="0"
       style="fill:#ffffff" />
    <path
       id="path32"
       d="M 333.748,383.229 H 256 v 45.89 h 77.748 c 12.672,0 22.945,-10.273 22.945,-22.945 -10e-4,-12.672 -10.273,-22.945 -22.945,-22.945 z"
       inkscape:connector-curvature="0"
       style="fill:#eaeaea" />
    <circle
       id="circle34"
       r="27.5"
       cy="132.881"
       cx="306.14301"
       style="fill:#06465e" />
    <path
       id="path36"
       d="m 306.144,172.881 c -22.056,0 -40,-17.944 -40,-40 0,-22.056 17.944,-40 40,-40 22.056,0 40,17.944 40,40 0,22.056 -17.945,40 -40,40 z m 0,-55 c -8.271,0 -15,6.729 -15,15 0,8.271 6.729,15 15,15 8.271,0 15,-6.729 15,-15 0,-8.271 -6.729,-15 -15,-15 z"
       inkscape:connector-curvature="0"
       style="fill:#2284ec" />
    <circle
       id="circle38"
       r="27.5"
       cy="132.881"
       cx="206.14301"
       style="fill:#06465e" />
    <path
       id="path40"
       d="m 206.144,172.881 c -22.056,0 -40,-17.944 -40,-40 0,-22.056 17.944,-40 40,-40 22.056,0 40,17.944 40,40 0,22.056 -17.945,40 -40,40 z m 0,-55 c -8.271,0 -15,6.729 -15,15 0,8.271 6.729,15 15,15 8.271,0 15,-6.729 15,-15 0,-8.271 -6.729,-15 -15,-15 z"
       inkscape:connector-curvature="0"
       style="fill:#27ade5" />
  </g>
</svg>
