<?xml version="1.0" encoding="UTF-8" standalone="no"?>
<!-- Generator: Adobe Illustrator 19.0.0, SVG Export Plug-In . SVG Version: 6.00 Build 0)  -->

<svg
   xmlns:dc="http://purl.org/dc/elements/1.1/"
   xmlns:cc="http://creativecommons.org/ns#"
   xmlns:rdf="http://www.w3.org/1999/02/22-rdf-syntax-ns#"
   xmlns:svg="http://www.w3.org/2000/svg"
   xmlns="http://www.w3.org/2000/svg"
   xmlns:sodipodi="http://sodipodi.sourceforge.net/DTD/sodipodi-0.dtd"
   xmlns:inkscape="http://www.inkscape.org/namespaces/inkscape"
   version="1.1"
   id="Layer_1"
   x="0px"
   y="0px"
   viewBox="0 0 50.000002 50.000002"
   xml:space="preserve"
   sodipodi:docname="tree.svg"
   inkscape:version="0.92.4 5da689c313, 2019-01-14"
   width="50"
   height="50"><metadata
   id="metadata53"><rdf:RDF><cc:Work
       rdf:about=""><dc:format>image/svg+xml</dc:format><dc:type
         rdf:resource="http://purl.org/dc/dcmitype/StillImage" /><dc:title /></cc:Work></rdf:RDF></metadata><defs
   id="defs51" /><sodipodi:namedview
   pagecolor="#ffffff"
   bordercolor="#666666"
   borderopacity="1"
   objecttolerance="10"
   gridtolerance="10"
   guidetolerance="10"
   inkscape:pageopacity="0"
   inkscape:pageshadow="2"
   inkscape:window-width="1920"
   inkscape:window-height="1006"
   id="namedview49"
   showgrid="false"
   inkscape:zoom="0.46093662"
   inkscape:cx="-522.84845"
   inkscape:cy="342.78032"
   inkscape:window-x="0"
   inkscape:window-y="0"
   inkscape:window-maximized="1"
   inkscape:current-layer="Layer_1" />





<g
   id="g868"
   transform="matrix(0.10904127,0,0,0.09765606,-2.914564,-1.36789e-6)"><path
     id="path2"
     d="m 485.271,240.532 c 0,-35.798 -21.77,-66.511 -52.792,-79.623 5.478,-10.59 8.592,-22.602 8.592,-35.348 0,-42.561 -34.502,-77.063 -77.063,-77.063 -12.126,0 -23.593,2.809 -33.799,7.798 C 321.141,23.827 291.362,0 256,0 c -35.362,0 -65.14,23.827 -74.209,56.296 -10.206,-4.99 -21.673,-7.798 -33.799,-7.798 -42.561,0 -77.063,34.502 -77.063,77.063 0,12.746 3.113,24.758 8.592,35.348 -31.022,13.113 -52.792,43.825 -52.792,79.623 0,46.393 36.576,84.196 82.459,86.265 6.397,23.17 31.1,40.443 60.622,40.443 16.732,0 31.91,-5.557 43.095,-14.581 11.186,9.024 26.364,14.581 43.095,14.581 16.731,0 31.91,-5.557 43.095,-14.581 11.186,9.024 26.364,14.581 43.095,14.581 29.522,0 54.225,-17.273 60.622,-40.444 45.883,-2.069 82.459,-39.871 82.459,-86.264 z"
     style="fill:#129b12"
     inkscape:connector-curvature="0" /><g
     id="g8">
	<path
   id="path4"
   d="m 251.377,0.153 c -0.949,0.057 -1.894,0.125 -2.833,0.217 -0.288,0.028 -0.574,0.06 -0.86,0.091 -1.009,0.109 -2.013,0.235 -3.01,0.383 -0.187,0.027 -0.374,0.054 -0.56,0.083 -1.186,0.185 -2.366,0.391 -3.534,0.629 -0.002,0 -0.004,10e-4 -0.006,10e-4 20.23,4.114 39.171,18.204 51.171,35.964 8.498,12.577 23.017,19.827 38.161,18.797 0.101,-0.007 0.201,-0.014 0.302,-0.021 C 321.141,23.827 291.362,0 256,0 c -1.24,0 -2.471,0.036 -3.696,0.094 -0.31,0.015 -0.617,0.041 -0.927,0.059 z"
   style="fill:#097c09"
   inkscape:connector-curvature="0" />
	<path
   id="path6"
   d="m 432.479,160.909 c 5.479,-10.59 8.592,-22.602 8.592,-35.348 0,-42.561 -34.502,-77.063 -77.063,-77.063 -5.282,0 -10.438,0.534 -15.42,1.548 35.166,7.147 61.633,38.239 61.633,75.515 0,12.746 -3.113,24.758 -8.592,35.348 31.022,13.113 52.792,43.825 52.792,79.623 0,46.393 -36.576,84.195 -82.458,86.264 -5.243,18.991 -22.787,34.012 -45.199,38.816 4.933,1.059 10.1,1.627 15.427,1.627 29.522,0 54.225,-17.273 60.622,-40.444 45.883,-2.069 82.458,-39.871 82.458,-86.264 0,-35.797 -21.768,-66.51 -52.792,-79.622 z"
   style="fill:#097c09"
   inkscape:connector-curvature="0" />
</g><path
     id="path10"
     d="m 200.82,339.895 c -6.95,11.788 -35.752,24.969 -46.433,25.718 1.175,0.252 2.366,0.472 3.567,0.668 0.096,0.016 0.192,0.033 0.289,0.048 1.217,0.193 2.446,0.359 3.688,0.492 0.032,0.003 0.064,0.005 0.096,0.009 1.117,0.118 2.246,0.203 3.381,0.27 0.276,0.016 0.553,0.032 0.831,0.046 1.183,0.057 2.372,0.095 3.572,0.095 v 0 c 15.26,0 29.216,-4.633 40.042,-12.292 l 1.898,-1.38 -9.666,-15.859 z"
     style="fill:#009000"
     inkscape:connector-curvature="0" /><path
     id="path12"
     d="m 294.533,359.573 33.016,-52.099 c 2.612,-4.121 1.821,-9.532 -1.86,-12.734 v 0 c -3.931,-3.419 -9.842,-3.196 -13.504,0.511 l -24.315,24.617 c -3.225,3.265 -8.75,0.55 -8.136,-3.997 l 7.15,-52.976 c 0.764,-5.66 -3.42,-10.786 -9.119,-11.171 l -6.699,-0.453 c -5.034,-0.34 -9.514,3.17 -10.389,8.139 l -12.763,72.513 c -0.71,4.033 -5.831,5.363 -8.414,2.187 l -39.972,-49.159 c -2.766,-3.402 -7.444,-4.572 -11.485,-2.873 l -6.999,2.941 c -5.541,2.329 -7.733,9.027 -4.641,14.181 l 41.076,68.467 c 5.948,9.915 8.401,21.547 6.914,33.014 -5.323,41.057 -11.936,79.778 -38.997,111.32 H 326.6 v 0 c -28.968,-33.766 -36.114,-75.757 -39.948,-120.035 -0.981,-11.371 1.772,-22.754 7.881,-32.393 z"
     style="fill:#bf6101"
     inkscape:connector-curvature="0" /><path
     id="path14"
     d="m 327.549,307.474 c 2.612,-4.121 1.822,-9.532 -1.86,-12.734 v 0 c -3.931,-3.419 -9.842,-3.196 -13.504,0.511 l -10.859,10.993 v 0 l -13.456,13.623 c -3.225,3.265 -8.75,0.55 -8.136,-3.997 l 7.15,-52.976 c 0.745,-5.517 -3.216,-10.514 -8.694,-11.12 l -20.105,124.965 c -0.338,1.614 -0.602,3.243 -0.786,4.884 v 0 0 c -0.383,3.415 -0.434,6.878 -0.135,10.341 3.836,44.279 10.982,86.27 39.95,120.036 v 0 h 29.488 v 0 c -28.968,-33.766 -36.114,-75.757 -39.948,-120.035 -0.984,-11.37 1.77,-22.752 7.878,-32.392 z"
     style="fill:#9a4d01"
     inkscape:connector-curvature="0" /><path
     id="path16"
     d="m 241.333,60.5 c -21.621,0 -40.232,12.832 -48.669,31.29 C 183.948,85.631 173.318,82 161.833,82 c -29.547,0 -53.5,23.953 -53.5,53.5 0,9.749 2.621,18.881 7.177,26.752 -25.656,3.945 -45.304,26.115 -45.304,52.875 0,29.547 23.953,53.5 53.5,53.5 29.547,0 171.127,-125.08 171.127,-154.627 0,-29.547 -23.951,-53.5 -53.5,-53.5 z"
     style="fill:#28a528"
     inkscape:connector-curvature="0" /></g>
<g
   id="g18"
   transform="translate(0,-462.00098)">
</g>
<g
   id="g20"
   transform="translate(0,-462.00098)">
</g>
<g
   id="g22"
   transform="translate(0,-462.00098)">
</g>
<g
   id="g24"
   transform="translate(0,-462.00098)">
</g>
<g
   id="g26"
   transform="translate(0,-462.00098)">
</g>
<g
   id="g28"
   transform="translate(0,-462.00098)">
</g>
<g
   id="g30"
   transform="translate(0,-462.00098)">
</g>
<g
   id="g32"
   transform="translate(0,-462.00098)">
</g>
<g
   id="g34"
   transform="translate(0,-462.00098)">
</g>
<g
   id="g36"
   transform="translate(0,-462.00098)">
</g>
<g
   id="g38"
   transform="translate(0,-462.00098)">
</g>
<g
   id="g40"
   transform="translate(0,-462.00098)">
</g>
<g
   id="g42"
   transform="translate(0,-462.00098)">
</g>
<g
   id="g44"
   transform="translate(0,-462.00098)">
</g>
<g
   id="g46"
   transform="translate(0,-462.00098)">
</g>
</svg>