<?xml version="1.0" encoding="UTF-8" standalone="no"?>
<!DOCTYPE svg PUBLIC "-//W3C//DTD SVG 1.1//EN"
 "http://www.w3.org/Graphics/SVG/1.1/DTD/svg11.dtd">
<!-- Generated by graphviz version 2.43.20190912.0211 (20190912.0211)
 -->
<!-- Title: packages Pages: 1 -->
<svg width="1013pt" height="404pt"
 viewBox="0.00 0.00 1013.00 404.00" xmlns="http://www.w3.org/2000/svg" xmlns:xlink="http://www.w3.org/1999/xlink">
<g id="graph0" class="graph" transform="scale(1 1) rotate(0) translate(4 400)">
<title>packages</title>
<polygon fill="white" stroke="transparent" points="-4,4 -4,-400 1009,-400 1009,4 -4,4"/>
<!-- 0 -->
<g id="node1" class="node">
<title>0</title>
<polygon fill="none" stroke="black" points="490.5,-108 404.5,-108 404.5,-72 490.5,-72 490.5,-108"/>
<text text-anchor="middle" x="447.5" y="-86.3" font-family="Times,serif" font-size="14.00">visualizer</text>
</g>
<!-- 2 -->
<g id="node3" class="node">
<title>2</title>
<polygon fill="none" stroke="black" points="788.5,-396 604.5,-396 604.5,-360 788.5,-360 788.5,-396"/>
<text text-anchor="middle" x="696.5" y="-374.3" font-family="Times,serif" font-size="14.00">visualizer.configuration</text>
</g>
<!-- 0&#45;&gt;2 -->
<g id="edge1" class="edge">
<title>0&#45;&gt;2</title>
<path fill="none" stroke="black" d="M429.79,-108.19C389.16,-149.69 296.97,-256.86 354.5,-324 384.95,-359.53 504.93,-371.44 594.24,-375.33"/>
<polygon fill="black" stroke="black" points="604.42,-375.74 594.25,-379.83 599.43,-375.54 594.43,-375.34 594.43,-375.34 594.43,-375.34 599.43,-375.54 594.61,-370.84 604.42,-375.74 604.42,-375.74"/>
</g>
<!-- 4 -->
<g id="node5" class="node">
<title>4</title>
<polygon fill="none" stroke="black" points="606,-180 495,-180 495,-144 606,-144 606,-180"/>
<text text-anchor="middle" x="550.5" y="-158.3" font-family="Times,serif" font-size="14.00">visualizer.gui</text>
</g>
<!-- 0&#45;&gt;4 -->
<g id="edge2" class="edge">
<title>0&#45;&gt;4</title>
<path fill="none" stroke="black" d="M472.7,-108.12C485.91,-117.11 502.29,-128.24 516.61,-137.97"/>
<polygon fill="black" stroke="black" points="525.21,-143.81 514.41,-141.91 521.07,-141 516.94,-138.19 516.94,-138.19 516.94,-138.19 521.07,-141 519.47,-134.47 525.21,-143.81 525.21,-143.81"/>
</g>
<!-- 5 -->
<g id="node6" class="node">
<title>5</title>
<polygon fill="none" stroke="black" points="525.5,-252 393.5,-252 393.5,-216 525.5,-216 525.5,-252"/>
<text text-anchor="middle" x="459.5" y="-230.3" font-family="Times,serif" font-size="14.00">visualizer.model</text>
</g>
<!-- 0&#45;&gt;5 -->
<g id="edge3" class="edge">
<title>0&#45;&gt;5</title>
<path fill="none" stroke="black" d="M448.08,-108.09C448.77,-126.03 450.15,-155.04 452.5,-180 453.29,-188.45 454.41,-197.62 455.52,-205.92"/>
<polygon fill="black" stroke="black" points="456.9,-215.85 451.07,-206.56 456.22,-210.9 455.53,-205.95 455.53,-205.95 455.53,-205.95 456.22,-210.9 459.99,-205.33 456.9,-215.85 456.9,-215.85"/>
</g>
<!-- 6 -->
<g id="node7" class="node">
<title>6</title>
<polygon fill="none" stroke="black" points="1005,-324 838,-324 838,-288 1005,-288 1005,-324"/>
<text text-anchor="middle" x="921.5" y="-302.3" font-family="Times,serif" font-size="14.00">visualizer.modelView</text>
</g>
<!-- 0&#45;&gt;6 -->
<g id="edge4" class="edge">
<title>0&#45;&gt;6</title>
<path fill="none" stroke="black" d="M450.31,-108.34C454.47,-128.44 464.21,-161.21 485.5,-180 512.34,-203.7 721.14,-256.82 839.78,-285.59"/>
<polygon fill="black" stroke="black" points="849.57,-287.96 838.79,-289.98 844.71,-286.79 839.85,-285.61 839.85,-285.61 839.85,-285.61 844.71,-286.79 840.91,-281.24 849.57,-287.96 849.57,-287.96"/>
</g>
<!-- 7 -->
<g id="node8" class="node">
<title>7</title>
<polygon fill="none" stroke="black" points="771,-180 624,-180 624,-144 771,-144 771,-180"/>
<text text-anchor="middle" x="697.5" y="-158.3" font-family="Times,serif" font-size="14.00">visualizer.network</text>
</g>
<!-- 0&#45;&gt;7 -->
<g id="edge5" class="edge">
<title>0&#45;&gt;7</title>
<path fill="none" stroke="black" d="M490.76,-103.11C528.18,-113.59 583,-128.94 626.79,-141.2"/>
<polygon fill="black" stroke="black" points="636.52,-143.93 625.68,-145.56 631.71,-142.58 626.89,-141.23 626.89,-141.23 626.89,-141.23 631.71,-142.58 628.11,-136.9 636.52,-143.93 636.52,-143.93"/>
</g>
<!-- 8 -->
<g id="node9" class="node">
<title>8</title>
<polygon fill="none" stroke="black" points="924,-180 789,-180 789,-144 924,-144 924,-180"/>
<text text-anchor="middle" x="856.5" y="-158.3" font-family="Times,serif" font-size="14.00">visualizer.parser</text>
</g>
<!-- 0&#45;&gt;8 -->
<g id="edge6" class="edge">
<title>0&#45;&gt;8</title>
<path fill="none" stroke="black" d="M490.62,-97.05C552.22,-105.88 669.17,-123.32 779.02,-143.97"/>
<polygon fill="black" stroke="black" points="788.94,-145.85 778.28,-148.41 784.03,-144.92 779.11,-143.99 779.11,-143.99 779.11,-143.99 784.03,-144.92 779.95,-139.57 788.94,-145.85 788.94,-145.85"/>
</g>
<!-- 9 -->
<g id="node10" class="node">
<title>9</title>
<polygon fill="none" stroke="black" points="157,-180 0,-180 0,-144 157,-144 157,-180"/>
<text text-anchor="middle" x="78.5" y="-158.3" font-family="Times,serif" font-size="14.00">visualizer.simulator</text>
</g>
<!-- 0&#45;&gt;9 -->
<g id="edge7" class="edge">
<title>0&#45;&gt;9</title>
<path fill="none" stroke="black" d="M404.16,-99.11C350.9,-109.1 257.48,-126.65 167.05,-143.9"/>
<polygon fill="black" stroke="black" points="157.18,-145.78 166.16,-139.49 162.09,-144.85 167,-143.91 167,-143.91 167,-143.91 162.09,-144.85 167.85,-148.33 157.18,-145.78 157.18,-145.78"/>
</g>
<!-- 10 -->
<g id="node11" class="node">
<title>10</title>
<polygon fill="none" stroke="black" points="307.5,-180 175.5,-180 175.5,-144 307.5,-144 307.5,-180"/>
<text text-anchor="middle" x="241.5" y="-158.3" font-family="Times,serif" font-size="14.00">visualizer.solver</text>
</g>
<!-- 0&#45;&gt;10 -->
<g id="edge8" class="edge">
<title>0&#45;&gt;10</title>
<path fill="none" stroke="black" d="M404.32,-105.67C374.46,-115.82 334.35,-129.45 301.42,-140.64"/>
<polygon fill="black" stroke="black" points="291.89,-143.88 299.91,-136.4 296.62,-142.27 301.36,-140.66 301.36,-140.66 301.36,-140.66 296.62,-142.27 302.8,-144.92 291.89,-143.88 291.89,-143.88"/>
</g>
<!-- 1 -->
<g id="node2" class="node">
<title>1</title>
<polygon fill="none" stroke="black" points="852,-36 701,-36 701,0 852,0 852,-36"/>
<text text-anchor="middle" x="776.5" y="-14.3" font-family="Times,serif" font-size="14.00">visualizer.__main__</text>
</g>
<!-- 3 -->
<g id="node4" class="node">
<title>3</title>
<polygon fill="none" stroke="black" points="846,-108 707,-108 707,-72 846,-72 846,-108"/>
<text text-anchor="middle" x="776.5" y="-86.3" font-family="Times,serif" font-size="14.00">visualizer.control</text>
</g>
<!-- 1&#45;&gt;3 -->
<g id="edge9" class="edge">
<title>1&#45;&gt;3</title>
<path fill="none" stroke="black" d="M776.5,-36.3C776.5,-44.02 776.5,-53.29 776.5,-61.89"/>
<polygon fill="black" stroke="black" points="776.5,-71.9 772,-61.9 776.5,-66.9 776.5,-61.9 776.5,-61.9 776.5,-61.9 776.5,-66.9 781,-61.9 776.5,-71.9 776.5,-71.9"/>
</g>
<!-- 3&#45;&gt;4 -->
<g id="edge10" class="edge">
<title>3&#45;&gt;4</title>
<path fill="none" stroke="black" d="M721.5,-108.03C689.51,-117.94 649.02,-130.49 615.46,-140.88"/>
<polygon fill="black" stroke="black" points="605.74,-143.89 613.96,-136.63 610.52,-142.41 615.3,-140.93 615.3,-140.93 615.3,-140.93 610.52,-142.41 616.63,-145.23 605.74,-143.89 605.74,-143.89"/>
</g>
<!-- 3&#45;&gt;6 -->
<g id="edge11" class="edge">
<title>3&#45;&gt;6</title>
<path fill="none" stroke="black" d="M846.11,-96.4C878.21,-102.78 913.54,-116.19 933.5,-144 961.99,-183.69 946.12,-243.96 933.09,-278.4"/>
<polygon fill="black" stroke="black" points="929.36,-287.79 928.87,-276.84 931.21,-283.15 933.05,-278.5 933.05,-278.5 933.05,-278.5 931.21,-283.15 937.23,-280.16 929.36,-287.79 929.36,-287.79"/>
</g>
<!-- 3&#45;&gt;7 -->
<g id="edge12" class="edge">
<title>3&#45;&gt;7</title>
<path fill="none" stroke="black" d="M756.97,-108.3C747.12,-117.03 735.01,-127.76 724.3,-137.25"/>
<polygon fill="black" stroke="black" points="716.8,-143.9 721.3,-133.9 720.55,-140.58 724.29,-137.26 724.29,-137.26 724.29,-137.26 720.55,-140.58 727.27,-140.63 716.8,-143.9 716.8,-143.9"/>
</g>
<!-- 3&#45;&gt;8 -->
<g id="edge13" class="edge">
<title>3&#45;&gt;8</title>
<path fill="none" stroke="black" d="M796.28,-108.3C806.25,-117.03 818.51,-127.76 829.36,-137.25"/>
<polygon fill="black" stroke="black" points="836.95,-143.9 826.46,-140.7 833.19,-140.6 829.43,-137.31 829.43,-137.31 829.43,-137.31 833.19,-140.6 832.39,-133.92 836.95,-143.9 836.95,-143.9"/>
</g>
<!-- 5&#45;&gt;6 -->
<g id="edge14" class="edge">
<title>5&#45;&gt;6</title>
<path fill="none" stroke="black" d="M525.84,-251.2C527.4,-251.47 528.96,-251.74 530.5,-252 658.14,-273.47 691.56,-268.35 819.5,-288 822.31,-288.43 825.17,-288.88 828.06,-289.35"/>
<polygon fill="black" stroke="black" points="837.97,-290.99 827.37,-293.8 833.04,-290.17 828.11,-289.36 828.11,-289.36 828.11,-289.36 833.04,-290.17 828.84,-284.92 837.97,-290.99 837.97,-290.99"/>
</g>
<!-- 11 -->
<g id="node12" class="node">
<title>11</title>
<polygon fill="none" stroke="black" points="820,-324 573,-324 573,-288 820,-288 820,-324"/>
<text text-anchor="middle" x="696.5" y="-302.3" font-family="Times,serif" font-size="14.00">visualizer.visualizerGraphicItem</text>
</g>
<!-- 5&#45;&gt;11 -->
<g id="edge15" class="edge">
<title>5&#45;&gt;11</title>
<path fill="none" stroke="black" d="M517.17,-252.03C550.86,-261.99 593.55,-274.59 628.83,-285.01"/>
<polygon fill="black" stroke="black" points="638.57,-287.89 627.7,-289.37 633.77,-286.47 628.98,-285.06 628.98,-285.06 628.98,-285.06 633.77,-286.47 630.25,-280.74 638.57,-287.89 638.57,-287.89"/>
</g>
<!-- 12 -->
<g id="node13" class="node">
<title>12</title>
<polygon fill="none" stroke="black" points="555,-324 364,-324 364,-288 555,-288 555,-324"/>
<text text-anchor="middle" x="459.5" y="-302.3" font-family="Times,serif" font-size="14.00">visualizer.visualizerItem</text>
</g>
<!-- 5&#45;&gt;12 -->
<g id="edge16" class="edge">
<title>5&#45;&gt;12</title>
<path fill="none" stroke="black" d="M459.5,-252.3C459.5,-260.02 459.5,-269.29 459.5,-277.89"/>
<polygon fill="black" stroke="black" points="459.5,-287.9 455,-277.9 459.5,-282.9 459.5,-277.9 459.5,-277.9 459.5,-277.9 459.5,-282.9 464,-277.9 459.5,-287.9 459.5,-287.9"/>
</g>
<!-- 6&#45;&gt;2 -->
<g id="edge17" class="edge">
<title>6&#45;&gt;2</title>
<path fill="none" stroke="black" d="M866.75,-324.03C834.9,-333.94 794.58,-346.49 761.17,-356.88"/>
<polygon fill="black" stroke="black" points="751.5,-359.89 759.71,-352.62 756.27,-358.4 761.05,-356.92 761.05,-356.92 761.05,-356.92 756.27,-358.4 762.38,-361.22 751.5,-359.89 751.5,-359.89"/>
</g>
<!-- 6&#45;&gt;5 -->
<g id="edge18" class="edge">
<title>6&#45;&gt;5</title>
<path fill="none" stroke="black" d="M837.99,-288.07C837.82,-288.05 837.66,-288.02 837.5,-288 709.56,-268.35 676.14,-273.47 548.5,-252 544.33,-251.3 540.04,-250.53 535.71,-249.72"/>
<polygon fill="black" stroke="black" points="525.55,-247.76 536.22,-245.23 530.46,-248.71 535.37,-249.65 535.37,-249.65 535.37,-249.65 530.46,-248.71 534.52,-254.07 525.55,-247.76 525.55,-247.76"/>
</g>
<!-- 8&#45;&gt;5 -->
<g id="edge19" class="edge">
<title>8&#45;&gt;5</title>
<path fill="none" stroke="black" d="M788.94,-178.13C785.75,-178.78 782.59,-179.4 779.5,-180 696.44,-196.03 600.68,-211.5 535.72,-221.54"/>
<polygon fill="black" stroke="black" points="525.57,-223.11 534.76,-217.14 530.51,-222.35 535.45,-221.59 535.45,-221.59 535.45,-221.59 530.51,-222.35 536.13,-226.03 525.57,-223.11 525.57,-223.11"/>
</g>
<!-- 11&#45;&gt;2 -->
<g id="edge20" class="edge">
<title>11&#45;&gt;2</title>
<path fill="none" stroke="black" d="M696.5,-324.3C696.5,-332.02 696.5,-341.29 696.5,-349.89"/>
<polygon fill="black" stroke="black" points="696.5,-359.9 692,-349.9 696.5,-354.9 696.5,-349.9 696.5,-349.9 696.5,-349.9 696.5,-354.9 701,-349.9 696.5,-359.9 696.5,-359.9"/>
</g>
</g>
</svg>
